<?xml version="1.0" encoding="utf-8" ?>
<svg baseProfile="full" height="200mm" version="1.1" viewBox="0,0,200,200" width="200mm" xmlns="http://www.w3.org/2000/svg" xmlns:ev="http://www.w3.org/2001/xml-events" xmlns:xlink="http://www.w3.org/1999/xlink"><defs /><rect fill="#1a1a1a" height="200" width="200" x="0" y="0" /><text alignment-baseline="middle" fill="#e1ed5e" style="dominant-baseline: central; font-size:9.0px; font-family:Arial;" text-anchor="middle" x="100.0" y="100.0">2022</text><line stroke="#e1ed5e" stroke-width="0.3" x1="100.0" x2="100.0" y1="15.0" y2="10.0" /><path d="M 100.0 14.0 a86.0,86.0 0 0,1 42.46469731375804,11.215312516191453" fill="none" id="id25" stroke="none" /><text fill="#e1ed5e" style="font-size:6.75px; font-family:Arial;" text-anchor="middle"><textPath startOffset="22.20632615414155" xlink:href="#id25">January</textPath></text><line stroke="#e1ed5e" stroke-width="0.3" x1="143.23703022742887" x2="145.7803849466894" y1="26.81831364943548" y2="22.513508569990506" /><path d="M 143.74570117128098 25.957352633546492 a86.0,86.0 0 0,1 28.547481713284135,27.462654790039103" fill="none" id="id26" stroke="none" /><text fill="#e1ed5e" style="font-size:6.75px; font-family:Arial;" text-anchor="middle"><textPath startOffset="19.985693538727396" xlink:href="#id26">February</textPath></text><line stroke="#e1ed5e" stroke-width="0.3" x1="172.23445277983987" x2="176.4835382374775" y1="55.19839476539836" y2="52.563006222186495" /><path d="M 173.08426987136738 54.67131705675599 a86.0,86.0 0 0,1 12.851231095245387,41.99856678651699" fill="none" id="id27" stroke="none" /><text fill="#e1ed5e" style="font-size:6.75px; font-family:Arial;" text-anchor="middle"><textPath startOffset="22.20632615414155" xlink:href="#id27">March</textPath></text><path d="M 118.21658344932153 89.55222093294921 l 6.439399584790804 -3.6931966070102265 a28.42331248100441,28.42331248100441 0 0,0 0.23976060072225472,0.42650735547812735 l -6.502017826805492 3.5818057415973055" fill="#ff1f03" stroke="none" /><path d="M 119.34039704204932 91.81776055985345 l 15.752505008633285 -6.664328942291864 a38.10423030416995,38.10423030416995 0 0,0 0.25035987713662894,0.6062663008536691 l -15.864886572656113 6.392188070984893" fill="#ffae10" stroke="none" /><path d="M 120.45610955862082 95.25157060432595 l 33.76975862046368 -7.838895957156685 a55.667634576237084,55.667634576237084 0 0,0 0.20863596683187177,0.9352741299053186 l -33.8996889742976 7.2564436577014035" fill="#72ff27" stroke="none" /><line stroke="#e1ed5e" stroke-width="0.3" x1="184.98032266829074" x2="189.97916517819016" y1="98.17113171792111" y2="98.06355123074" /><path d="M 185.9800911702706 98.14961562048488 a86.0,86.0 0 0,1 -9.607161424134198,41.387399972396054" fill="none" id="id28" stroke="none" /><text fill="#e1ed5e" style="font-size:6.75px; font-family:Arial;" text-anchor="middle"><textPath startOffset="21.466115282336823" xlink:href="#id28">April</textPath></text><path d="M 120.9904718944345 100.63252640178507 l 15.741385126236109 0.47435054071610216 a36.748530538687255,36.748530538687255 0 0,0 -0.02449528801876412,0.6321145413987846 l -15.730887705366142 -0.745242329128893" fill="#ff9b0e" stroke="none" /><path d="M 120.89721153311464 102.0752229133903 l 12.381128791792548 1.2295229974415025 a33.44202865131695,33.44202865131695 0 0,0 -0.061816313589524094,0.5723422905198811 l -12.358130176701973 -1.4424616098461749" fill="#ff6b09" stroke="none" /><path d="M 120.76222939487914 103.15116336523771 l 8.080072672916188 1.2263436893550415 a29.172606269974583,29.172606269974583 0 0,0 -0.07962488629065813,0.4958242429398175 l -8.05776603226424 -1.365247161988064" fill="#ff2b04" stroke="none" /><path d="M 120.49622156327973 104.57218783832717 l 11.288665795801181 2.518215384389266 a32.56613090758817,32.56613090758817 0 0,0 -0.1267589100103709,0.5460740667357818 l -11.243646319860257 -2.7121581084736124" fill="#ff5e08" stroke="none" /><path d="M 120.41448212921028 104.9243191809786 l 13.242350631799438 3.194279473007462 a34.62216104761634,34.62216104761634 0 0,0 -0.14473495307785605,0.5781441913951876 l -13.185404364426521 -3.4217515038000457" fill="#ff7c0b" stroke="none" /><path d="M 119.79798401119884 107.00284435728193 l 31.05995615552258 10.986373086173353 a53.945732196622664,53.945732196622664 0 0,0 -0.3171899594567675,0.8727705407580872 l -30.866241935060586 -11.519391423937572" fill="#86ff25" stroke="none" /><path d="M 119.41010516605496 108.01547362559984 l 21.574187118664266 8.909139150148974 a44.34134336810665,44.34134336810665 0 0,0 -0.2974016526672734,0.7029696558774486 l -21.417634484804683 -9.279183331692586" fill="#fcff18" stroke="none" /><path d="M 119.12269723197855 108.67885076344098 l 9.756271961004453 4.427891490929628 a31.7140592509342,31.7140592509342 0 0,0 -0.22988975338274997,0.4951620768338802 l -9.678607590781871 -4.5951736350423396" fill="#ff5107" stroke="none" /><line stroke="#e1ed5e" stroke-width="0.3" x1="174.80103733775053" x2="179.2010983576182" y1="140.37084112569926" y2="142.7455964860345" /><path d="M 175.68104954172406 140.8457921977663 a86.0,86.0 0 0,1 -30.038265399797805,32.042727171017184" fill="none" id="id29" stroke="none" /><text fill="#e1ed5e" style="font-size:6.75px; font-family:Arial;" text-anchor="middle"><textPath startOffset="22.206326154141568" xlink:href="#id29">May</textPath></text><path d="M 118.12598468904814 110.60418214915192 l 32.82953345175986 19.206148441937117 a59.03491034081641,59.03491034081641 0 0,0 -0.5206854474552232,0.8726987597059346 l -32.49406712860641 -19.768409295529157" fill="#4dff2c" stroke="none" /><path d="M 117.94076556474637 110.91462005526583 l 21.902439613849392 13.324782925557884 a46.63721320759255,46.63721320759255 0 0,0 -0.42314467730431843,0.6822439520129692 l -21.66983029687711 -13.699823208936126" fill="#dfff1b" stroke="none" /><path d="M 117.35343817320211 111.8261652097733 l 9.169808127650015 6.249117020912557 a32.09670422418185,32.09670422418185 0 0,0 -0.3150659758027656,0.4538760368747428 l -9.060881244685113 -6.40603431997432" fill="#ff5708" stroke="none" /><path d="M 116.71984013943494 112.70617746262583 l 16.268596790698762 12.363256835391581 a41.43324157142451,41.43324157142451 0 0,0 -0.436416694102668,0.5641274066900887 l -16.05337327937803 -12.641462236194924" fill="#ffdb14" stroke="none" /><line stroke="#e1ed5e" stroke-width="0.3" x1="143.8653032363475" x2="146.44561519142675" y1="172.8068346515853" y2="177.08958963109032" /><path d="M 144.38136562736335 173.6633856474863 a86.0,86.0 0 0,1 -40.68145358897372,12.25698825130547" fill="none" id="id30" stroke="none" /><text fill="#e1ed5e" style="font-size:6.75px; font-family:Arial;" text-anchor="middle"><textPath startOffset="21.466115282336833" xlink:href="#id30">June</textPath></text><path d="M 100.90346689309514 120.98055641714683 l 0.5678330040487097 13.186374030982156 a34.19859441021837,34.19859441021837 0 0,0 -0.5883455315116617,0.02026380970431474 l -0.3407671208623958 -13.194194639112565" fill="#ff760a" stroke="none" /><line stroke="#e1ed5e" stroke-width="0.3" x1="102.19456741930631" x2="102.32365962044197" y1="184.97166512339345" y2="189.96999836594603" /><path d="M 102.22038585953345 185.97133177190398 a86.0,86.0 0 0,1 -42.740103519485714,-10.115201625700543" fill="none" id="id31" stroke="none" /><text fill="#e1ed5e" style="font-size:6.75px; font-family:Arial;" text-anchor="middle"><textPath startOffset="22.20632615414155" xlink:href="#id31">July</textPath></text><path d="M 100.54218724476979 120.99299961872073 l 0.3060025346405497 11.848141310967476 a32.85209222356376,32.85209222356376 0 0,0 -0.565431923855217,0.009734423347060369 l -0.10201092089266478 -11.851653211593696" fill="#ff6209" stroke="none" /><path d="M 90.42595943632237 118.69057910512821 l -5.297103898652394 10.3410820945817 a32.61883335795796,32.61883335795796 0 0,0 -0.49752900350124535,-0.2602836599589748 l 5.474323804680136 -10.24836901567801" fill="#ff5f08" stroke="none" /><line stroke="#e1ed5e" stroke-width="0.3" x1="58.666819895761336" x2="56.23545636021788" y1="174.27360380694188" y2="178.64263932499728" /><path d="M 58.180547188652646 175.14741091055294 a86.0,86.0 0 0,1 -31.652253787137756,-30.449443065178592" fill="none" id="id32" stroke="none" /><text fill="#e1ed5e" style="font-size:6.75px; font-family:Arial;" text-anchor="middle"><textPath startOffset="22.20632615414155" xlink:href="#id32">August</textPath></text><path d="M 84.43433777217949 114.09645910891817 l -12.072819959390849 10.933297305058717 a37.287724571979666,37.287724571979666 0 0,0 -0.4267511722678817,-0.47945946600108524 l 12.259229981307067 -10.723863669316767" fill="#ffa20f" stroke="none" /><path d="M 82.24976979558568 111.22182372390057 l -4.580883032169849 2.8960673351736586 a26.41956597563693,26.41956597563693 0 0,0 -0.23970769157067595,-0.386485123402529 l 4.630055363408481 -2.8167858804058654" fill="#ff0000" stroke="none" /><line stroke="#e1ed5e" stroke-width="0.3" x1="26.63291911575756" x2="22.317208475507996" y1="142.92168965132927" y2="145.44649492493687" /><path d="M 25.769776987707644 143.4266507060508 a86.0,86.0 0 0,1 -11.730757126820373,-40.83630448921669" fill="none" id="id33" stroke="none" /><text fill="#e1ed5e" style="font-size:6.75px; font-family:Arial;" text-anchor="middle"><textPath startOffset="21.46611528233685" xlink:href="#id33">September</textPath></text><path d="M 81.87401531095188 110.60418214915194 l -8.047630704479033 4.7080775650751745 a30.32364490499493,30.32364490499493 0 0,0 -0.25969747645464164,-0.4528044401641083 l 8.127480177086053 -4.568853279052759" fill="#ff3c05" stroke="none" /><line stroke="#e1ed5e" stroke-width="0.3" x1="15.007084014347285" x2="10.007500721073583" y1="101.09737516637583" y2="101.16192664675087" /><path d="M 14.007167355692545 101.11028546245083 a86.0,86.0 0 0,1 10.666146001902534,-42.60595125391555" fill="none" id="id34" stroke="none" /><text fill="#e1ed5e" style="font-size:6.75px; font-family:Arial;" text-anchor="middle"><textPath startOffset="22.20632615414155" xlink:href="#id34">October</textPath></text><path d="M 80.65960295795068 91.81776055985345 l -5.5785141408991334 -2.360072459828029 a27.057207445337358,27.057207445337358 0 0,0 0.18516057502898883,-0.4273761359388684 l 5.537062856027464 2.455747740353497" fill="#ff0a01" stroke="none" /><path d="M 81.10775173730289 90.83032412892265 l -7.16320539702205 -3.476784275502994 a28.962382837964444,28.962382837964444 0 0,0 0.22154841923470991,-0.4466280941093819 l 7.102296964833928 3.599571958111338" fill="#ff2803" stroke="none" /><path d="M 81.6062741919709 89.86733742301443 l -22.231836767192164 -12.246985889625881 a46.38194691948931,46.38194691948931 0 0,0 0.3912479751794103,-0.6959864912219335 l 22.017731150720323 12.627855890782598" fill="#e2ff1b" stroke="none" /><line stroke="#e1ed5e" stroke-width="0.3" x1="26.266209847984243" x2="21.928928074336255" y1="57.711370442889674" y2="55.22380399835377" /><path d="M 25.398753493254645 57.213857153982495 a86.0,86.0 0 0,1 29.58750427330803,-30.492523968695096" fill="none" id="id35" stroke="none" /><text fill="#e1ed5e" style="font-size:6.75px; font-family:Arial;" text-anchor="middle"><textPath startOffset="21.46611528233685" xlink:href="#id35">November</textPath></text><path d="M 81.78341655067845 89.55222093294921 l -50.97584385465005 -29.23623718089123 a79.76473620455545,79.76473620455545 0 0,0 0.6933467101222955,-1.1851542792372471 l 50.46503747005743 30.10937087248237" fill="#47fdff" stroke="none" /><path d="M 82.34701348167596 88.62581576622439 l -34.57923089745058 -22.280113480039585 a62.135467253243185,62.135467253243185 0 0,0 0.5870421793643434,-0.8941055138208238 l 34.190592082728315 22.872037057838075" fill="#30ff33" stroke="none" /><path d="M 82.54541684631803 88.32363383020206 l -52.36374946104589 -35.02909850939381 a84.0,84.0 0 0,0 0.8143021373250385,-1.194887906918337 l 51.75302285805211 35.92526443958256" fill="#4dd2ff" stroke="none" /><path d="M 82.7489923806493 88.02491185347247 l -41.29179665225188 -28.663421612807642 a71.26533805043479,71.26533805043479 0 0,0 0.7081988903112489,-1.0016971065421505 l 40.792285142136755 29.36994521968158" fill="#3cffa4" stroke="none" /><path d="M 82.95767976084542 87.72973835380427 l -42.23226244716809 -30.40671122626818 a73.0397163616804,73.0397163616804 0 0,0 0.7433961027567045,-1.0139914487148103 l 41.70260373189775 31.129165118654488" fill="#3effb8" stroke="none" /><path d="M 83.84228863543731 86.58626213691792 l -8.420203673291399 -6.990247707667758 a31.94364623488279,31.94364623488279 0 0,0 0.35486255395810196,-0.42004533447507003 l 8.298630505846173 7.134151991771945" fill="#ff5507" stroke="none" /><path d="M 84.07557802195018 86.31012108654704 l -9.343213366721912 -8.03215713758939 a33.32116813857433,33.32116813857433 0 0,0 0.37765281581292437,-0.43172245236439094 l 9.203568687331144 8.191795146156723" fill="#ff6909" stroke="none" /><path d="M 84.5562425177563 85.77008943001954 l -8.357687724214244 -7.70079101696137 a32.3645557054552,32.3645557054552 0 0,0 0.3810274181093357,-0.40645348327059666 l 8.223892984134453 7.843513917110017" fill="#ff5b08" stroke="none" /><path d="M 84.80347519578584 85.50635884689758 l -7.337816972375859 -6.998421508532506 a31.140091791062723,31.140091791062723 0 0,0 0.37328923501788824,-0.38470736973606423 l 7.216263473654852 7.123693073818694" fill="#ff4906" stroke="none" /><line stroke="#e1ed5e" stroke-width="0.3" x1="56.762969772571076" x2="54.21961505331055" y1="26.818313649435495" y2="22.513508569990535" /><path d="M 56.25429882871897 25.957352633546506 a86.0,86.0 0 0,1 42.265352541879196,-11.944610805530505" fill="none" id="id36" stroke="none" /><text fill="#e1ed5e" style="font-size:6.75px; font-family:Arial;" text-anchor="middle"><textPath startOffset="22.20632615414155" xlink:href="#id36">December</textPath></text></svg>